<svg width="40" height="50" viewBox="0 0 40 50" fill="none" xmlns="http://www.w3.org/2000/svg">
<g clip-path="url(#clip0_211_2)">
<path fill-rule="evenodd" clip-rule="evenodd" d="M13.5478 24.1311L13.5768 24.1374C12.0394 25.7041 11.0918 27.8483 11.0918 30.2133C11.0918 35.0119 14.9936 38.9021 19.8068 38.9021C24.6199 38.9021 28.5217 35.0119 28.5217 30.2133C28.5217 28.5216 28.0369 26.9429 27.1981 25.6077L35.9336 18.7459C38.2503 21.9786 39.6135 25.9372 39.6135 30.2133C39.6135 41.1194 30.7457 49.9605 19.8068 49.9605C8.8678 49.9605 0 41.1194 0 30.2133C0 22.0245 4.99938 14.9998 12.1211 12.0077L12.1217 12.0063C12.1217 12.0063 12.1236 12.0057 12.1271 12.0043C12.1305 12.0032 12.1354 12.0013 12.142 11.999C12.5677 11.8207 13.0011 11.6568 13.4413 11.5079C15.6229 10.6592 19.9718 8.85893 22.3024 7.1485C25.497 4.80412 28.4821 0 28.4821 0C28.4821 0 32.1125 5.45696 32.0077 9.36019C31.9592 11.168 31.7276 12.6761 31.1909 14.0517C30.6457 15.4493 29.7854 16.7101 28.4821 18.0095C25.8962 20.5876 21.629 21.5245 20.5198 21.5245C20.445 21.5245 20.361 21.5232 20.2686 21.5218L20.25 21.5215C18.9624 21.501 16.0845 21.4554 13.5478 24.1311ZM25.4765 26.8081C25.7875 26.7039 26.1245 26.8708 26.2291 27.1809L25.6658 27.3697C26.2291 27.1809 26.2291 27.1811 26.2292 27.1813L26.2294 27.1818L26.2299 27.1833L26.2313 27.1874L26.2333 27.1938L26.2356 27.2009C26.2377 27.2072 26.2402 27.2148 26.243 27.2239C26.2454 27.231 26.2479 27.2392 26.2507 27.2482C26.2633 27.2885 26.2808 27.3462 26.3017 27.4197C26.3435 27.5663 26.3992 27.7764 26.4568 28.036C26.5716 28.554 26.6955 29.2766 26.7299 30.0934C26.7978 31.7086 26.5187 33.8015 24.9901 35.3539C23.4556 36.9125 21.3436 37.1888 19.7127 37.1137C18.8874 37.0757 18.1551 36.9468 17.6298 36.828C17.3665 36.7684 17.1534 36.711 17.0044 36.6679C16.9299 36.6463 16.8712 36.6283 16.8304 36.6153C16.8098 36.6088 16.7938 36.6036 16.7823 36.5998L16.7763 36.5979C16.7734 36.5968 16.7708 36.596 16.7687 36.5953L16.7645 36.5939L16.7631 36.5934L16.7625 36.5933C16.7624 36.5932 16.7621 36.5931 16.9546 36.0326L16.7621 36.5931C16.4517 36.4871 16.2862 36.1503 16.3924 35.8408C16.4986 35.5314 16.8362 35.3664 17.1466 35.472L17.1467 35.472L17.147 35.4721L17.1476 35.4723C17.1489 35.4727 17.1514 35.4736 17.155 35.4748C17.1622 35.4772 17.174 35.481 17.1901 35.486C17.2221 35.4962 17.2712 35.5114 17.3358 35.53C17.4649 35.5674 17.6551 35.6188 17.8928 35.6725C18.3696 35.7803 19.0301 35.8961 19.7675 35.9301C21.2623 35.9989 22.9561 35.7284 24.1421 34.5239C25.3339 33.3135 25.6047 31.6217 25.5425 30.143C25.5117 29.4129 25.4004 28.7612 25.2964 28.2916C25.2445 28.0575 25.1948 27.8705 25.1586 27.7435C25.1406 27.6802 25.1259 27.6319 25.1161 27.6005C25.1139 27.5937 25.112 27.5877 25.1104 27.5825C25.1082 27.5757 25.1065 27.5702 25.1052 27.5662L25.1028 27.5589L25.1026 27.5585L25.1025 27.5581L25.1025 27.558C24.9982 27.2479 25.1656 26.9123 25.4765 26.8081ZM24.2214 28.8397C24.1168 28.5295 23.7798 28.3626 23.4688 28.4669C23.1581 28.571 22.9907 28.9063 23.0945 29.2162L23.0947 29.2166L23.0948 29.2169C23.0948 29.2171 23.0949 29.2172 23.6366 29.0356L23.0949 29.2172L23.0954 29.2189C23.0964 29.2219 23.0982 29.2274 23.1006 29.2352C23.1055 29.2509 23.1131 29.2758 23.1226 29.3092C23.1416 29.3759 23.1681 29.4757 23.196 29.6013C23.252 29.8537 23.3115 30.2033 23.3279 30.5934C23.3616 31.3919 23.2116 32.2517 22.6178 32.8548C22.03 33.4519 21.1728 33.6022 20.3651 33.565C19.9712 33.5469 19.6169 33.4849 19.3603 33.4269C19.2328 33.398 19.1312 33.3706 19.0632 33.3509C19.0292 33.3411 19.0038 33.3333 18.9878 33.3282C18.983 33.3266 18.979 33.3254 18.976 33.3244C18.9739 33.3237 18.9723 33.3231 18.9711 33.3227L18.9693 33.3222L18.7768 33.8827C18.9693 33.3222 18.9691 33.3221 18.9689 33.322L18.9686 33.322L18.9682 33.3219C18.6581 33.2166 18.3208 33.3816 18.2146 33.6908C18.1084 34.0003 18.2739 34.3372 18.5844 34.4431L18.7718 33.8972C18.5844 34.4431 18.5845 34.4432 18.5848 34.4433L18.5852 34.4434L18.5863 34.4438L18.5894 34.4449C18.5917 34.4457 18.5947 34.4466 18.5984 34.4479C18.6058 34.4502 18.6157 34.4535 18.6281 34.4574C18.653 34.4653 18.6879 34.4761 18.7319 34.4888C18.8198 34.5142 18.9442 34.5477 19.0974 34.5824C19.4024 34.6513 19.8285 34.7265 20.3103 34.7487C21.2541 34.7921 22.5294 34.636 23.4659 33.6848C24.3965 32.7397 24.5547 31.4788 24.5153 30.5438C24.4953 30.067 24.4231 29.6465 24.3564 29.3457C24.3229 29.1945 24.2904 29.0718 24.2657 28.9852C24.2534 28.9419 24.2429 28.9075 24.2353 28.8829C24.2314 28.8706 24.2283 28.8608 24.226 28.8536C24.2248 28.8499 24.2238 28.847 24.223 28.8446L24.222 28.8416L24.2216 28.8405L24.2215 28.84C24.2215 28.8399 24.2214 28.8397 23.6581 29.0284L24.2214 28.8397Z" fill="#7367F0"/>
</g>
<defs>
<clipPath id="clip0_211_2">
<rect width="39.6135" height="50" fill="white"/>
</clipPath>
</defs>
</svg>
